<svg xmlns="http://www.w3.org/2000/svg" viewBox="0 0 1600 1000" preserveAspectRatio="xMidYMid slice">
  <defs>
    <linearGradient id="panel" x1="0" x2="0" y1="0" y2="1">
      <stop offset="0" stop-color="#081321"/>
      <stop offset=".52" stop-color="#03080e"/>
      <stop offset="1" stop-color="#070a10"/>
    </linearGradient>
    <filter id="hudGlow">
      <feGaussianBlur stdDeviation="5" result="b"/>
      <feMerge><feMergeNode in="b"/><feMergeNode in="SourceGraphic"/></feMerge>
    </filter>
  </defs>
  <rect width="1600" height="1000" fill="url(#panel)"/>
  <g opacity=".35">
    <path d="M0 688h1600v312H0z" fill="#0d1118"/>
    <path d="M190 708h1220l-130 220H320z" fill="#111823" stroke="#80d7ff" stroke-opacity=".26" stroke-width="4"/>
    <path d="M420 712l130 216M1180 712l-130 216" stroke="#80d7ff" stroke-opacity=".2" stroke-width="5"/>
  </g>
  <g opacity=".42" filter="url(#hudGlow)">
    <circle cx="250" cy="210" r="86" fill="#07111b" stroke="#74ceff" stroke-width="5"/>
    <circle cx="1350" cy="210" r="86" fill="#07111b" stroke="#74ceff" stroke-width="5"/>
    <path d="M250 130v160M170 210h160M1350 130v160M1270 210h160" stroke="#74ceff" stroke-width="3"/>
    <rect x="552" y="118" width="496" height="94" rx="12" fill="#07111b" stroke="#74ceff" stroke-width="4"/>
    <path d="M612 166h78m34 0h78m34 0h78m34 0h78" stroke="#7efff7" stroke-width="10" stroke-dasharray="28 18"/>
  </g>
  <g opacity=".32" filter="url(#hudGlow)">
    <rect x="570" y="748" width="460" height="130" rx="12" fill="#081321" stroke="#7efff7" stroke-width="4"/>
    <path d="M628 792h110M628 828h220M862 792h110M862 828h110" stroke="#6af8cb" stroke-width="8" stroke-dasharray="28 14"/>
    <path d="M760 606l40-60 40 60" fill="none" stroke="#7efff7" stroke-width="14"/>
  </g>
  <g opacity=".18">
    <text x="800" y="948" text-anchor="middle" fill="#83d7ff" font-family="monospace" font-size="42" letter-spacing="10">COCKPIT INSTRUMENT PANEL</text>
  </g>
</svg>
